<?xml version="1.0" encoding="iso-8859-1"?>
<!-- Generator: Adobe Illustrator 19.0.0, SVG Export Plug-In . SVG Version: 6.00 Build 0)  -->
<svg version="1.1" id="Capa_1" xmlns="http://www.w3.org/2000/svg" xmlns:xlink="http://www.w3.org/1999/xlink" x="0px" y="0px"
	 viewBox="0 0 512.001 512.001" style="enable-background:new 0 0 512.001 512.001;" xml:space="preserve">
<g>
	<g>
		<path d="M501.946,472.497c-0.01-0.139-0.024-0.277-0.042-0.414c-0.007-0.053-0.008-0.106-0.016-0.16l-2.228-14.542
			c-2.301-15.016-13.3-27.155-28.021-30.925l-44.923-11.507c-28.318-7.253-55.01-19.146-79.336-35.347l-49.251-32.802
			c-12.822-8.541-21.783-21.378-25.5-35.92c-0.02-0.094-0.049-0.187-0.072-0.281c-1.214-4.844-1.848-9.874-1.848-14.996V100.209
			c0-19.668,5.351-38.98,15.477-55.849l0.211-0.352c2.276-3.792,2.853-8.394,1.582-12.626c-1.272-4.232-4.288-7.753-8.275-9.662
			C218.857-7.4,146.501-7.241,85.805,22.209c-7.662,3.718-10.949,12.737-7.482,20.533L84.54,56.72
			c4.506,10.132,7.463,20.946,8.693,31.968c0.683,6.127-1.159,22.583,10.169,19.362c9.288-2.641,5.16-18.79,4.173-25.448
			c-1.635-11.019-4.797-21.803-9.323-31.979l-6.217-13.976c-0.156-0.353-0.013-0.772,0.321-0.934
			c14.047-6.816,34.419-14.639,59.43-18.506v82.566c0,11.321,9.213,20.531,20.536,20.531h3.537v162.39
			c0,9.656,15.007,9.672,15.007,0V120.301h3.537c11.323,0,20.536-9.21,20.536-20.531V17.234
			c24.366,3.792,44.304,11.331,58.286,18.023c0.071,0.034,0.289,0.139,0.381,0.443c0.092,0.306-0.033,0.514-0.076,0.586
			l-0.212,0.353c-11.524,19.199-17.615,41.182-17.615,63.57v195.395c0,5.072,0.506,10.07,1.471,14.937l-13.795,17.243
			c-6.892,8.614-17.174,13.555-28.209,13.555h-24.302v-20.058c0-9.656-15.007-9.672-15.007,0v20.058h-34.987
			c-11.298,0-22.095-5.39-28.88-14.421l-11.622-15.465c5.592-13.072,8.54-27.332,8.54-41.535V137.147c0-9.656-15.007-9.672-15.007,0
			v132.772c0,13.503-3.097,27.072-8.957,39.24c-0.013,0.027-0.024,0.054-0.037,0.081c-0.014,0.03-0.029,0.061-0.042,0.091
			c-6.78,14.142-10.366,29.898-10.366,45.58v7.067L57.36,349.435c-3.344-2.447-7.824-2.689-11.415-0.617
			c-3.589,2.073-5.619,6.074-5.17,10.194l3.302,30.345l-27.945,12.316c-8.139,3.588-8.145,15.562,0.001,19.152l27.944,12.317
			l-3.301,30.345c-0.448,4.12,1.582,8.122,5.171,10.194c3.521,2.034,8.141,1.779,11.414-0.617l18.404-13.466l6.017,33.962
			c1.894,10.688,11.148,18.444,22.004,18.444h93.988c8.178,0,14.873-6.651,14.926-14.861l0.061-34.318l62.205,27.518
			c14.705,6.505,30.224,11.143,46.1,13.703c8.061,1.3,34.306,7.793,37.32-3.113c3.666-13.27-24.201-10.17-31.275-11.154
			c-15.878-2.212-31.414-6.674-46.074-13.159l-66.433-29.389c-0.287-0.127-0.583-0.236-0.884-0.326
			c-3.778-1.13-7.76-0.434-10.931,1.91c-3.169,2.344-5.001,5.948-5.027,9.924l-0.067,38.259h-93.907
			c-3.566,0-6.606-2.547-7.228-6.056l-5.142-29.025l15.234,11.147c3.344,2.449,7.826,2.692,11.415,0.618
			c3.59-2.073,5.62-6.074,5.171-10.194l-3.245-29.833h76.137c12.151,0,23.951,2.488,35.069,7.394l53.227,23.49
			c24.611,10.86,40.897,16.029,66.893,16.029h134.048c-2.877,6.401-9.317,10.869-16.781,10.869h-81.14
			c-9.656,0-9.672,15.007,0,15.007h81.139c18.278,0,33.166-14.76,33.381-32.981c0.001-0.025,0-0.047,0.001-0.069
			c0.013-0.169,0.013-0.339,0-0.508C501.963,472.755,501.956,472.627,501.946,472.497z M199.934,99.77L199.934,99.77
			c-0.001,3.046-2.481,5.524-5.53,5.524h-22.08c-3.049,0-5.529-2.478-5.529-5.524V15.437c4.53-0.364,9.184-0.588,13.954-0.645
			c6.615-0.082,13.014,0.164,19.186,0.667V99.77z M89.508,354.909c0-9.225,1.448-18.479,4.233-27.297l6.255,8.323
			c3.402,4.525,7.524,8.39,12.127,11.513c-1.938,0.131-3.841,0.791-5.473,1.986l-17.142,12.543V354.909z M114.288,419.228
			c-0.013,0.005-0.026,0.011-0.039,0.017l-3.41,1.503c-4.195,1.849-6.68,6.153-6.184,10.707l2.547,23.415l-19.018-13.915
			c-3.699-2.707-8.668-2.704-12.361,0l-19.018,13.915l2.547-23.415c0.496-4.555-1.989-8.858-6.185-10.708l-21.556-9.501
			l21.555-9.499c4.196-1.849,6.682-6.152,6.186-10.709l-2.547-23.415l19.016,13.914c3.697,2.707,8.666,2.707,12.363,0.002
			c0.001,0,0.001,0,0.001,0l19.017-13.915l-2.547,23.415c-0.496,4.557,1.989,8.86,6.185,10.708l21.556,9.5L114.288,419.228z
			 M175.86,356.346v62.297h-24.802c1.926-1.928,3.065-4.571,3.066-7.395c0-4.146-2.451-7.905-6.246-9.577l-27.944-12.317
			l3.302-30.345c0.246-2.26-0.258-4.483-1.352-6.373c5.984,2.402,12.423,3.708,18.99,3.708h34.986V356.346z M351.316,465.555v0.001
			c-23.449,0-37.719-4.551-60.834-14.752l-53.227-23.49c-13.039-5.754-26.876-8.672-41.128-8.672h-5.26v-62.297h24.304
			c15.619,0,30.172-6.993,39.927-19.187l7.615-9.519c5.832,12.658,15.109,23.665,27.098,31.65l49.251,32.802
			c25.735,17.141,53.972,29.721,83.93,37.395l44.924,11.507c8.884,2.275,15.522,9.6,16.911,18.66l0.904,5.901H351.316z"/>
	</g>
</g>
<g>
	<g>
		<path d="M82.004,403.638c-9.8,0-9.775,15.218,0,15.218C91.769,418.856,91.867,403.638,82.004,403.638z"/>
	</g>
</g>
<g>
</g>
<g>
</g>
<g>
</g>
<g>
</g>
<g>
</g>
<g>
</g>
<g>
</g>
<g>
</g>
<g>
</g>
<g>
</g>
<g>
</g>
<g>
</g>
<g>
</g>
<g>
</g>
<g>
</g>
</svg>
