<?xml version="1.0" encoding="iso-8859-1"?>
<!-- Generator: Adobe Illustrator 19.0.0, SVG Export Plug-In . SVG Version: 6.00 Build 0)  -->
<svg version="1.1" id="Capa_1" xmlns="http://www.w3.org/2000/svg" xmlns:xlink="http://www.w3.org/1999/xlink" x="0px" y="0px"
	 viewBox="0 0 512 512" style="enable-background:new 0 0 512 512;" xml:space="preserve">
<g>
	<g>
		<g>
			<path d="M0.041,420.759v-0.001c-0.007-0.134-0.005-0.271-0.011-0.406L0.041,420.759z"/>
			<path d="M0,419.182c0,0.393,0.015,0.781,0.03,1.17L0,419.179V419.182z"/>
			<path d="M491.621,64.18c-0.045-0.016-0.089-0.03-0.134-0.045c-0.393-0.135-0.789-0.263-1.189-0.382
				c-0.103-0.031-0.206-0.058-0.309-0.088c-0.346-0.099-0.693-0.194-1.044-0.281c-0.161-0.04-0.322-0.075-0.483-0.112
				c-0.301-0.069-0.602-0.138-0.906-0.198c-0.213-0.042-0.427-0.077-0.64-0.115c-0.261-0.046-0.522-0.093-0.786-0.132
				c-0.258-0.038-0.517-0.067-0.776-0.099c-0.228-0.028-0.454-0.059-0.683-0.082c-0.31-0.031-0.622-0.05-0.934-0.071
				c-0.183-0.012-0.365-0.03-0.55-0.039c-0.482-0.024-0.966-0.036-1.452-0.037c-0.017,0-0.033-0.001-0.05-0.001h-0.004H435.03
				h-26.655c-4.143,0-7.5,3.358-7.5,7.5c0,4.142,3.357,7.5,7.5,7.5h8.554l-31.987,32h-45.92l31.987-32H376
				c4.143,0,7.5-3.358,7.5-7.5c0-4.142-3.357-7.5-7.5-7.5h-8.1h-56.73h-67.13h-56.73h-67.13H63.46H30.316
				C13.6,62.499,0,76.099,0,92.815l0.041,327.943l0,0c0.016,0.314,0.046,0.625,0.072,0.938c0.017,0.203,0.027,0.407,0.048,0.608
				c0.04,0.39,0.094,0.776,0.148,1.163c0.017,0.119,0.029,0.239,0.047,0.357c0.061,0.394,0.135,0.785,0.211,1.176
				c0.021,0.111,0.039,0.223,0.062,0.333c0.076,0.368,0.164,0.734,0.254,1.099c0.033,0.135,0.063,0.271,0.098,0.405
				c0.086,0.329,0.182,0.656,0.279,0.982c0.052,0.173,0.101,0.347,0.156,0.519c0.09,0.283,0.188,0.564,0.286,0.844
				c0.077,0.219,0.154,0.438,0.236,0.656c0.088,0.234,0.181,0.467,0.276,0.699c0.108,0.266,0.219,0.531,0.334,0.794
				c0.042,0.094,0.077,0.189,0.119,0.283c0.019,0.041,0.043,0.078,0.063,0.119c4.781,10.47,15.344,17.769,27.587,17.769H63.15
				h56.729H187h56.74h67.12h56.74h67.12h46.96h0.004C498.4,449.499,512,435.899,512,419.183v-0.003v-46.99v-67.14v-56.751v-67.15
				v-56.74V92.815C512,79.579,503.47,68.304,491.621,64.18z M438.138,77.499h35.518l-31.993,32h-35.511L438.138,77.499z
				 M314.277,77.499h35.522l-31.987,32h-35.521L314.277,77.499z M247.149,77.499h45.92l-31.986,32h-45.921L247.149,77.499z
				 M190.416,77.499h35.522l-31.987,32H158.43L190.416,77.499z M123.288,77.499h45.92l-31.986,32h-45.92L123.288,77.499z M15,92.815
				c0-8.445,6.871-15.316,15.316-15.316h15.041L15,107.867V92.815z M15,129.085l51.567-51.586h35.512l-31.987,32H58
				c-4.143,0-7.5,3.358-7.5,7.5v12.094L15,164.607V129.085z M15,252.974l35.5-35.514v35.533L15,288.507V252.974z M15,309.725
				l35.5-35.514v45.932L15,355.657V309.725z M15,376.875l35.5-35.514v35.532L15,412.408V376.875z M60.043,434.499H30.316
				c-4.444,0-8.441-1.915-11.241-4.949l31.908-31.922c1.066,2.844,3.801,4.871,7.017,4.871h34.029L60.043,434.499z M116.773,434.499
				H81.251l31.987-32h35.521L116.773,434.499z M183.893,434.499h-45.912l31.987-32h45.918L183.893,434.499z M240.633,434.499
				h-35.529l31.994-32h35.521L240.633,434.499z M307.753,434.499h-45.912l31.986-32h10.339c4.143,0,7.5-3.358,7.5-7.5
				c0-4.142-3.357-7.5-7.5-7.5H65.5V191.666c0-4.142-3.357-7.5-7.5-7.5s-7.5,3.358-7.5,7.5v4.578L15,231.757v-45.932l35.5-35.514
				v9.688c0,4.142,3.357,7.5,7.5,7.5s7.5-3.358,7.5-7.5v-35.5h381v263H336.167c-4.143,0-7.5,3.358-7.5,7.5
				c0,4.142,3.357,7.5,7.5,7.5h3.579L307.753,434.499z M364.493,434.499h-35.529l31.993-32h35.522L364.493,434.499z M497,419.179
				c0,8.447-6.873,15.32-15.32,15.32h-28.859L497,390.301V419.179z M497,369.083l-65.388,65.416h-45.911l31.987-32H454
				c4.143,0,7.5-3.358,7.5-7.5v-36.324l35.5-35.514V369.083z M497,301.944l-35.5,35.514v-35.533l35.5-35.514V301.944z M497,245.193
				l-35.5,35.514v-45.932l35.5-35.514V245.193z M497,178.043l-35.5,35.514v-35.532l35.5-35.507V178.043z M497,121.303l-35.5,35.507
				v-39.811c0-1.721-0.585-3.301-1.56-4.566l31.449-31.456c3.423,2.812,5.611,7.074,5.611,11.838V121.303z"/>
		</g>
	</g>
</g>
<g>
	<g>
		<path d="M388.545,225.499h-43.441c-11.912,0-21.604,9.691-21.604,21.604v43.441c0,12.106,9.849,21.955,21.955,21.955h43.09
			c12.106,0,21.955-9.849,21.955-21.955v-43.09C410.5,235.348,400.651,225.499,388.545,225.499z M395.5,290.544L395.5,290.544
			c0,3.835-3.12,6.955-6.955,6.955h-43.09c-3.835,0-6.955-3.12-6.955-6.955v-43.441c0-3.641,2.962-6.604,6.604-6.604h43.441
			c3.835,0,6.955,3.12,6.955,6.955V290.544z"/>
	</g>
</g>
<g>
	<g>
		<path d="M402.736,324.499h-71.471c-4.143,0-7.5,3.358-7.5,7.5c0,4.142,3.357,7.5,7.5,7.5h71.471c4.143,0,7.5-3.358,7.5-7.5
			C410.236,327.857,406.879,324.499,402.736,324.499z"/>
	</g>
</g>
<g>
	<g>
		<path d="M403,350.499h-72c-4.143,0-7.5,3.358-7.5,7.5c0,4.142,3.357,7.5,7.5,7.5h72c4.143,0,7.5-3.358,7.5-7.5
			C410.5,353.857,407.143,350.499,403,350.499z"/>
	</g>
</g>
<g>
</g>
<g>
</g>
<g>
</g>
<g>
</g>
<g>
</g>
<g>
</g>
<g>
</g>
<g>
</g>
<g>
</g>
<g>
</g>
<g>
</g>
<g>
</g>
<g>
</g>
<g>
</g>
<g>
</g>
</svg>
