<?xml version="1.0" encoding="iso-8859-1"?>
<!-- Generator: Adobe Illustrator 19.0.0, SVG Export Plug-In . SVG Version: 6.00 Build 0)  -->
<svg version="1.1" id="Capa_1" xmlns="http://www.w3.org/2000/svg" xmlns:xlink="http://www.w3.org/1999/xlink" x="0px" y="0px"
	 viewBox="0 0 512 512" style="enable-background:new 0 0 512 512;" xml:space="preserve">
<g>
	<g>
		<path d="M399.305,332.378l-54.778-74.83l54.778-74.829c1.752-2.393,1.926-5.596,0.443-8.164c-1.482-2.569-4.345-4.019-7.291-3.699
			l-92.193,10.025l-37.415-84.855c-1.197-2.714-3.883-4.465-6.849-4.465s-5.652,1.751-6.849,4.465l-37.415,84.855l-92.193-10.025
			c-2.946-0.322-5.808,1.13-7.291,3.699c-1.483,2.569-1.31,5.771,0.442,8.164l54.778,74.829l-54.778,74.83
			c-1.752,2.393-1.926,5.596-0.442,8.164c1.483,2.569,4.353,4.023,7.291,3.699l92.193-10.025l37.415,84.855
			c1.197,2.714,3.883,4.465,6.849,4.465s5.652-1.751,6.849-4.465l37.415-84.855l92.193,10.025c2.941,0.323,5.809-1.13,7.291-3.699
			C401.231,337.973,401.058,334.771,399.305,332.378z M296.435,318.74c-3.238-0.353-6.342,1.436-7.658,4.422L256,397.497
			l-32.777-74.335c-1.206-2.735-3.907-4.465-6.846-4.465c-0.269,0-0.54,0.014-0.812,0.044l-80.764,8.783l47.987-65.553
			c1.927-2.633,1.927-6.211,0-8.843l-47.987-65.553l80.764,8.783c3.241,0.355,6.342-1.437,7.658-4.423L256,117.6l32.777,74.335
			c1.316,2.985,4.415,4.774,7.658,4.422l80.764-8.783l-47.987,65.553c-1.927,2.633-1.927,6.211,0,8.843l47.987,65.553
			L296.435,318.74z"/>
	</g>
</g>
<g>
	<g>
		<path d="M480.671,362.944c-2.119-7.947-7.205-14.593-14.32-18.713c-4.689-2.716-10.014-4.152-15.4-4.152
			c-3.635,0-7.183,0.66-10.509,1.87l-61.786-84.401l61.189-83.584c3.501,1.358,7.262,2.101,11.121,2.101
			c5.376,0,10.694-1.431,15.378-4.139c14.696-8.497,19.741-27.365,11.246-42.064c-5.487-9.488-15.712-15.383-26.686-15.383
			c-5.376,0-10.694,1.431-15.378,4.139c-8.229,4.758-13.429,12.767-14.923,21.474l-103.275,11.23l-42.632-96.688
			c6.917-5.65,11.343-14.241,11.343-23.849C286.039,13.811,272.228,0,255.251,0s-30.788,13.811-30.788,30.787
			c0,10.114,4.904,19.103,12.457,24.719l-14.324,32.485c-1.668,3.783,0.046,8.201,3.828,9.869c3.783,1.668,8.202-0.046,9.869-3.829
			l14.456-32.785c0.047,0.007,0.094,0.008,0.141,0.015c0.743,0.106,1.494,0.183,2.253,0.234c0.103,0.007,0.205,0.017,0.307,0.023
			c0.596,0.035,1.196,0.057,1.8,0.057c0.169,0,0.335-0.01,0.503-0.013c0.153-0.002,0.306-0.007,0.459-0.012
			c0.767-0.024,1.529-0.068,2.281-0.148c0.104-0.011,0.207-0.028,0.311-0.04c0.681-0.079,1.355-0.181,2.022-0.304
			c0.105-0.019,0.213-0.027,0.318-0.048l44.695,101.366c1.317,2.985,4.415,4.775,7.658,4.422l108.23-11.769
			c0.622,1.862,1.432,3.664,2.418,5.404c0.046,0.082,0.088,0.166,0.135,0.248c0.428,0.74,0.894,1.449,1.377,2.144
			c0.144,0.208,0.294,0.411,0.443,0.615c0.391,0.534,0.798,1.053,1.221,1.557c0.096,0.114,0.179,0.239,0.276,0.352l-64.258,87.777
			c-1.927,2.633-1.927,6.211,0,8.843l64.674,88.346c-0.011,0.012-0.021,0.025-0.032,0.037c-0.191,0.213-0.373,0.434-0.557,0.652
			c-0.214,0.252-0.426,0.505-0.632,0.763c-0.17,0.214-0.336,0.431-0.5,0.65c-0.225,0.299-0.443,0.604-0.658,0.911
			c-0.13,0.187-0.262,0.373-0.389,0.563c-0.328,0.495-0.645,0.997-0.943,1.51c-0.008,0.013-0.016,0.025-0.024,0.038
			c-0.39,0.673-0.741,1.357-1.075,2.047c-0.069,0.142-0.139,0.284-0.206,0.427c-0.314,0.674-0.601,1.355-0.862,2.042
			c-0.019,0.049-0.043,0.097-0.062,0.146l-108.576-11.807c-3.242-0.35-6.341,1.437-7.658,4.422l-14.02,31.796
			c-1.668,3.783,0.047,8.201,3.829,9.869c0.982,0.433,2.007,0.638,3.016,0.638c2.875,0,5.618-1.667,6.853-4.467l11.809-26.783
			l103.102,11.211c1.239,9.108,6.509,17.576,15.061,22.529c4.689,2.716,10.015,4.151,15.4,4.151
			c10.963,0,21.183-5.886,26.673-15.363C481.684,379.186,482.788,370.891,480.671,362.944z M443.019,131.58
			c2.41-1.393,5.137-2.129,7.886-2.129c5.646,0,10.905,3.029,13.725,7.905c4.365,7.551,1.773,17.245-5.777,21.61
			c-2.41,1.393-5.137,2.129-7.886,2.129c-3.242,0-6.354-1.003-8.952-2.776c-0.044-0.032-0.085-0.069-0.13-0.101
			c-0.948-0.661-1.804-1.407-2.568-2.229c-0.024-0.026-0.049-0.051-0.072-0.077c-0.351-0.383-0.68-0.784-0.99-1.199
			c-0.056-0.074-0.109-0.151-0.163-0.226c-0.302-0.419-0.589-0.848-0.849-1.298c-0.288-0.499-0.542-1.01-0.772-1.529
			c-0.081-0.182-0.143-0.369-0.216-0.553c-0.136-0.342-0.27-0.685-0.382-1.035c-0.066-0.208-0.117-0.418-0.175-0.627
			c-0.094-0.345-0.183-0.692-0.253-1.044c-0.039-0.195-0.071-0.391-0.102-0.586c-0.062-0.387-0.111-0.778-0.145-1.173
			C434.692,140.719,437.542,134.747,443.019,131.58z M261.778,45.177c-0.301,0.137-0.607,0.262-0.915,0.379
			c-0.187,0.071-0.375,0.143-0.565,0.207c-0.331,0.111-0.666,0.208-1.002,0.296c-0.173,0.046-0.344,0.094-0.519,0.134
			c-0.362,0.082-0.727,0.146-1.094,0.203c-0.161,0.025-0.321,0.054-0.483,0.074c-0.374,0.046-0.75,0.072-1.125,0.091
			c-0.166,0.009-0.33,0.022-0.497,0.025c-0.38,0.008-0.76-0.005-1.14-0.025c-0.16-0.008-0.321-0.011-0.48-0.024
			c-0.394-0.032-0.786-0.086-1.177-0.147c-0.14-0.022-0.283-0.038-0.422-0.064c-0.403-0.075-0.802-0.173-1.199-0.279
			c-0.124-0.033-0.251-0.06-0.374-0.096c-0.425-0.125-0.844-0.275-1.26-0.437c-5.896-2.3-10.092-8.027-10.092-14.728
			c0-8.721,7.096-15.816,15.817-15.816s15.817,7.095,15.817,15.816C271.068,37.18,267.249,42.686,261.778,45.177z M464.608,378.798
			c-2.821,4.87-8.077,7.895-13.717,7.895c-2.754,0-5.485-0.738-7.898-2.135c-5.609-3.249-8.469-9.44-7.776-15.504
			c0.053-0.471,0.134-0.936,0.229-1.396c0.014-0.069,0.021-0.139,0.036-0.208c0.09-0.412,0.209-0.816,0.332-1.218
			c0.035-0.114,0.058-0.23,0.096-0.344c0.114-0.342,0.255-0.675,0.392-1.009c0.067-0.164,0.12-0.331,0.193-0.493
			c0.138-0.307,0.305-0.604,0.463-0.903c0.095-0.179,0.174-0.362,0.277-0.539c0.002-0.003,0.004-0.006,0.006-0.009
			c0.282-0.487,0.597-0.956,0.933-1.411c0.035-0.048,0.069-0.097,0.104-0.144c0.342-0.453,0.709-0.888,1.099-1.303
			c0.026-0.028,0.052-0.055,0.078-0.083c0.408-0.427,0.838-0.835,1.292-1.216c0.001-0.001,0.002-0.002,0.003-0.002
			c0.468-0.393,0.96-0.759,1.471-1.096c0.016-0.011,0.031-0.024,0.047-0.035c2.543-1.662,5.553-2.596,8.683-2.596
			c2.753,0,5.483,0.738,7.896,2.136c3.657,2.117,6.269,5.532,7.358,9.614C467.292,370.882,466.725,375.143,464.608,378.798z"/>
	</g>
</g>
<g>
	<g>
		<path d="M287.375,413.152c-3.779-1.668-8.2,0.047-9.868,3.829l-15.05,34.132c-2.083-0.447-4.242-0.687-6.457-0.687
			c-2.215,0-4.374,0.24-6.457,0.687l-43.384-98.393c-1.317-2.985-4.414-4.776-7.658-4.422L89.966,360.099
			c-0.022-0.061-0.053-0.12-0.076-0.181c-0.265-0.706-0.556-1.405-0.876-2.098c-0.06-0.13-0.125-0.259-0.187-0.388
			c-0.343-0.715-0.706-1.425-1.109-2.122c-0.006-0.009-0.012-0.018-0.017-0.028c-0.301-0.519-0.621-1.027-0.953-1.528
			c-0.117-0.176-0.238-0.348-0.358-0.522c-0.225-0.325-0.456-0.646-0.694-0.963c-0.151-0.201-0.302-0.401-0.457-0.597
			c-0.233-0.295-0.474-0.582-0.718-0.868c-0.154-0.181-0.304-0.366-0.462-0.543c-0.006-0.007-0.012-0.014-0.018-0.022l64.619-88.27
			c1.927-2.633,1.927-6.211,0-8.843l-64.318-87.859c0.014-0.016,0.027-0.033,0.04-0.049c0.314-0.362,0.619-0.73,0.915-1.106
			c0.159-0.202,0.31-0.41,0.464-0.616c0.224-0.299,0.442-0.601,0.654-0.907c0.121-0.176,0.243-0.351,0.361-0.53
			c0.328-0.496,0.647-0.998,0.944-1.51c0.263-0.455,0.513-0.914,0.752-1.378c0.032-0.062,0.06-0.126,0.091-0.188
			c0.205-0.406,0.404-0.814,0.591-1.226c0.013-0.029,0.024-0.058,0.037-0.087c0.2-0.446,0.389-0.895,0.567-1.348
			c0.003-0.007,0.005-0.014,0.008-0.02c0.165-0.423,0.324-0.847,0.47-1.276l108.265,11.773c3.244,0.354,6.342-1.436,7.658-4.422
			l16.046-36.391c1.668-3.783-0.047-8.201-3.829-9.869c-3.779-1.669-8.2,0.046-9.868,3.829l-13.835,31.377L91.44,140.098
			c-1.457-8.76-6.664-16.831-14.931-21.619c-4.689-2.716-10.015-4.151-15.4-4.151c-10.963,0-21.183,5.886-26.673,15.363
			c-4.121,7.115-5.224,15.41-3.107,23.357c2.119,7.947,7.205,14.593,14.32,18.713c4.689,2.716,10.014,4.152,15.4,4.152
			c3.823,0,7.549-0.73,11.022-2.064l61.272,83.699l-61.702,84.286c-3.354-1.233-6.937-1.907-10.608-1.907
			c-5.376,0-10.694,1.431-15.378,4.139c-14.696,8.497-19.741,27.365-11.246,42.064c5.487,9.488,15.712,15.383,26.686,15.383
			c5.376,0,10.694-1.431,15.378-4.139c8.514-4.923,13.78-13.328,15.059-22.385l103.139-11.215l41.434,93.971
			c-6.657,5.652-10.893,14.073-10.893,23.469C225.212,498.189,239.023,512,256,512s30.788-13.811,30.788-30.787
			c0-9.396-4.236-17.818-10.893-23.469l15.31-34.723C292.872,419.238,291.158,414.819,287.375,413.152z M76.808,146.615
			c-0.033,0.355-0.081,0.707-0.137,1.057c-0.036,0.221-0.07,0.441-0.116,0.66c-0.065,0.318-0.148,0.631-0.233,0.944
			c-0.063,0.232-0.12,0.465-0.194,0.695c-0.104,0.321-0.229,0.635-0.354,0.949c-0.081,0.205-0.151,0.413-0.241,0.616
			c-0.222,0.499-0.47,0.989-0.746,1.47c-0.008,0.014-0.013,0.028-0.021,0.041c-0.002,0.003-0.004,0.007-0.006,0.01
			c-0.261,0.45-0.549,0.88-0.852,1.299c-0.054,0.074-0.106,0.15-0.161,0.223c-0.312,0.416-0.642,0.818-0.995,1.201
			c-0.03,0.033-0.061,0.064-0.092,0.097c-0.77,0.822-1.632,1.568-2.586,2.228c-0.048,0.033-0.092,0.073-0.14,0.107
			c-2.585,1.745-5.671,2.73-8.885,2.73c-2.753,0-5.483-0.738-7.896-2.136c-3.657-2.117-6.269-5.532-7.358-9.614
			c-1.088-4.083-0.52-8.344,1.596-11.999c2.821-4.87,8.077-7.895,13.717-7.895c2.754,0,5.485,0.738,7.898,2.135
			C74.516,134.625,77.364,140.655,76.808,146.615z M68.981,384.412c-2.41,1.393-5.137,2.129-7.886,2.129
			c-5.646,0-10.905-3.029-13.725-7.905c-4.365-7.551-1.773-17.245,5.777-21.61c2.41-1.393,5.137-2.129,7.886-2.129
			c3.16,0,6.198,0.95,8.755,2.64c0.012,0.008,0.023,0.018,0.036,0.026c0.493,0.328,0.966,0.685,1.418,1.065
			c0.018,0.015,0.037,0.029,0.055,0.045c0.435,0.369,0.848,0.763,1.241,1.176c0.037,0.039,0.074,0.078,0.111,0.118
			c0.378,0.406,0.736,0.831,1.068,1.273c0.039,0.052,0.076,0.106,0.115,0.159c0.332,0.453,0.645,0.919,0.925,1.404
			c0.275,0.475,0.522,0.961,0.744,1.456c0.058,0.129,0.099,0.261,0.153,0.391c0.155,0.373,0.309,0.746,0.434,1.129
			c0.036,0.109,0.059,0.22,0.092,0.33c0.125,0.413,0.244,0.828,0.335,1.251c0.018,0.082,0.027,0.165,0.043,0.247
			c0.09,0.453,0.166,0.91,0.217,1.373C77.435,375.024,74.572,381.179,68.981,384.412z M256,497.029
			c-8.721,0-15.817-7.095-15.817-15.816c0-6.23,3.63-11.615,8.878-14.191c0.422-0.208,0.849-0.394,1.282-0.562
			c0.16-0.062,0.321-0.121,0.484-0.177c0.371-0.13,0.747-0.241,1.126-0.342c0.198-0.053,0.394-0.108,0.595-0.153
			c0.376-0.085,0.757-0.146,1.14-0.202c0.191-0.028,0.38-0.067,0.573-0.088c0.574-0.063,1.153-0.101,1.739-0.101
			s1.165,0.038,1.739,0.101c0.194,0.021,0.382,0.059,0.573,0.088c0.382,0.056,0.764,0.118,1.14,0.202
			c0.201,0.045,0.397,0.101,0.595,0.153c0.379,0.101,0.755,0.212,1.126,0.342c0.162,0.057,0.324,0.116,0.484,0.177
			c0.433,0.168,0.861,0.354,1.282,0.562c5.248,2.577,8.878,7.961,8.878,14.191C271.817,489.934,264.721,497.029,256,497.029z"/>
	</g>
</g>
<g>
</g>
<g>
</g>
<g>
</g>
<g>
</g>
<g>
</g>
<g>
</g>
<g>
</g>
<g>
</g>
<g>
</g>
<g>
</g>
<g>
</g>
<g>
</g>
<g>
</g>
<g>
</g>
<g>
</g>
</svg>
